<?xml version="1.0" encoding="UTF-8"?>
<!DOCTYPE svg PUBLIC "-//W3C//DTD SVG 1.1//EN" "http://www.w3.org/Graphics/SVG/1.1/DTD/svg11.dtd">
<!-- Creator: CorelDRAW X5 -->
<svg xmlns="http://www.w3.org/2000/svg" xml:space="preserve" width="976px" height="487px" style="shape-rendering:geometricPrecision; text-rendering:geometricPrecision; image-rendering:optimizeQuality; fill-rule:evenodd; clip-rule:evenodd"
viewBox="0 0 93361 46519"
 xmlns:xlink="http://www.w3.org/1999/xlink">
 <defs>
  <style type="text/css">
   <![CDATA[
    .fil1 {fill:#FEFEFE;fill-rule:nonzero}
    .fil0 {fill:#A79366;fill-rule:nonzero}
   ]]>
  </style>
 </defs>
 <g id="Ebene_x0020_1">
  <metadata id="CorelCorpID_0Corel-Layer"/>
  <path class="fil0" d="M39639 7439c1,-2 8,-2 9,-4l6909 -9 -2856 -1170c-182,-420 -1019,-2366 -1270,-2952l0 0 4125 4122 -1164 -2837c116,-402 918,-3197 1169,-4062l-5 6899 1212 -2875c337,-147 2334,-1013 2936,-1273l-4147 4148 2835 -1195c566,164 3273,950 4079,1187 0,0 -5,2 -6,2l-6908 6 2857 1172c231,533 1031,2401 1266,2955l-4123 -4127 1159 2834c-155,541 -931,3250 -1170,4078l11 -6912 -1212 2873c-507,220 -2372,1032 -2941,1279l0 0 4153 -4153 -2860 1207c-704,-207 -3273,-966 -4057,-1193zm-512 2c0,90 58,167 148,194 0,0 3717,1094 4013,1179 -261,599 -1239,2850 -1241,2850 -8,28 -18,56 -18,82 0,54 24,106 67,149 63,59 151,72 220,38 0,0 2579,-1119 2854,-1239 212,726 1177,4016 1177,4016 26,87 108,145 198,145 90,0 169,-57 195,-147 0,0 1076,-3730 1160,-4024 603,258 2860,1221 2863,1223 78,29 162,12 217,-43 45,-38 67,-94 67,-149 0,-29 -5,-56 -16,-82 0,0 -1103,-2583 -1221,-2860 735,-211 4024,-1157 4027,-1157 85,-28 147,-106 147,-181l0 -17c0,-87 -55,-164 -150,-196 0,0 -3722,-1094 -4018,-1181 264,-601 1237,-2838 1237,-2840 17,-29 23,-61 23,-93 0,-52 -19,-103 -55,-139 -60,-64 -153,-83 -233,-47 0,0 -2575,1121 -2851,1241 -214,-735 -1178,-4018 -1178,-4020 -26,-87 -106,-142 -198,-142 -89,0 -170,60 -194,147 0,0 -1077,3734 -1159,4027 -606,-261 -2858,-1221 -2858,-1221 -78,-36 -171,-17 -227,39 -41,41 -63,96 -63,151 0,27 6,56 19,80 0,0 1105,2581 1221,2859 -291,82 -4024,1160 -4027,1160 -87,25 -145,102 -145,179 0,0 0,15 0,21z"/>
  <path class="fil1" d="M446 35953c0,-206 -6,-351 -17,-418 -11,-62 -95,-117 -112,-123 -78,-27 -223,-27 -296,-33l-22 -22 0 -105 22 -23c139,6 446,23 1093,23 435,0 870,-17 1171,-23l95 67 -45 697 -89 0 -22 -22c0,-112 -61,-357 -128,-435 -167,-56 -446,-73 -630,-73 -112,0 -362,0 -535,50 -17,217 -34,670 -34,931 0,240 6,608 17,703 128,50 268,50 491,50 212,0 625,-28 792,-78l22 22 0 302 -22 22c-72,-33 -229,-50 -669,-50 -323,0 -501,6 -614,17 -11,296 -17,592 -17,876 0,206 6,351 17,418 11,62 95,117 112,123 78,28 357,28 429,33l22 23 0 106 -22 22c-72,0 -446,-22 -781,-22 -340,0 -580,22 -653,22l-22 -22 0 -106 22 -23c72,-6 217,-6 296,-33 17,-6 100,-61 112,-123 11,-67 17,-212 17,-418l0 -2354z"/>
  <path class="fil1" d="M4356 38307c0,206 6,351 17,418 11,62 95,117 112,123 78,28 256,28 329,33l23 23 0 106 -23 22c-228,-6 -451,-22 -680,-22 -228,0 -457,17 -686,22l-22 -22 0 -106 22 -23c72,-6 251,-6 329,-33 17,-6 100,-61 112,-123 11,-67 17,-212 17,-418l0 -2354c0,-206 -6,-351 -17,-418 -12,-62 -95,-117 -112,-123 -78,-27 -257,-27 -329,-33l-22 -22 0 -105 22 -23c228,6 457,23 686,23 229,0 452,-17 680,-23l23 23 0 105 -23 22c-72,6 -251,6 -329,33 -17,6 -101,61 -112,123 -11,67 -17,212 -17,418l0 2354z"/>
  <path class="fil1" d="M6425 35892c0,-357 -262,-513 -457,-513l-22 -22 0 -105 22 -23c123,11 284,23 446,23 123,0 240,-12 362,-23 413,692 1684,2209 2359,2984l0 -2041c0,-697 -78,-792 -463,-792l-22 -22 0 -105 22 -23c190,11 379,23 569,23 190,0 385,-12 586,-23l22 23 0 105 -22 22c-340,0 -457,11 -457,803l0 2309c0,173 17,396 33,541l-234 0c-162,-245 -1640,-2052 -2510,-3073l0 2181c0,702 128,741 452,741l22 23 0 106 -22 22c-190,-6 -385,-22 -575,-22 -201,0 -396,17 -569,22l-22 -22 0 -106 22 -23c457,0 457,-111 457,-1383l0 -1606z"/>
  <path class="fil1" d="M11305 35953c0,-206 -6,-351 -17,-418 -11,-62 -95,-117 -112,-123 -78,-27 -223,-27 -307,-33l-22 -22 0 -105 22 -23c346,6 708,23 1076,23 435,0 870,-17 1305,-23l95 67 -45 641 -89 0 -22 -22c0,-84 -61,-302 -128,-379 -156,-45 -468,-73 -714,-73 -195,0 -424,6 -558,33 -17,162 -34,558 -34,742 0,223 11,441 17,658 56,11 290,22 513,22 273,0 686,-28 853,-78l22 23 0 301 -22 22c-72,-33 -229,-50 -731,-50 -262,0 -491,11 -574,22l-61 61c-6,134 -17,274 -17,408 0,262 17,842 34,1137 128,17 424,33 680,33 234,0 547,-17 736,-84 84,-167 106,-218 162,-424l134 0c-11,133 -45,413 -45,674l-67 67c-429,-17 -864,-22 -1294,-22 -418,0 -764,6 -1026,22l-22 -22 0 -106 22 -23c234,-39 234,-67 234,-574l0 -2354z"/>
  <path class="fil1" d="M15003 38134l22 23 34 351c6,39 223,374 803,374 530,0 876,-312 876,-881 0,-1070 -2036,-423 -2036,-1751 0,-731 697,-1065 1405,-1065 268,0 586,33 848,178 -39,207 -89,469 -89,686l-128 0 -22 -23c-11,-167 -17,-212 -50,-396 -173,-123 -346,-251 -759,-251 -513,0 -753,318 -753,692 0,1199 2036,469 2036,1723 0,881 -703,1283 -1517,1283 -100,0 -574,0 -870,-217 56,-184 61,-379 89,-725l112 0z"/>
  <path class="fil1" d="M21271 35958l-22 -22c-11,-117 -22,-318 -111,-413 -145,-28 -284,-55 -641,-55 -112,0 -223,5 -368,17 -22,150 -33,312 -33,468l0 2354c0,206 6,351 17,418 11,62 95,117 112,123 78,28 257,28 329,33l22 23 0 106 -22 22c-229,-6 -452,-22 -680,-22 -229,0 -457,17 -686,22l-22 -22 0 -106 22 -23c73,-6 251,-6 329,-33 17,-6 100,-61 112,-123 11,-67 17,-212 17,-418l0 -2354c0,-156 -11,-318 -33,-468 -145,-12 -257,-17 -368,-17 -357,0 -496,27 -641,55 -89,95 -100,296 -112,413l-22 22 -167 0c28,-173 33,-301 33,-413 0,-117 -22,-206 -33,-295l67 -67c229,55 759,67 1506,67 742,0 1272,-12 1500,-67l67 67c-11,89 -34,178 -34,295 0,111 6,240 34,413l-167 0z"/>
  <path class="fil1" d="M27657 36087l-22 -28c0,-190 0,-251 -56,-335 -139,-206 -647,-346 -982,-346 -1205,0 -1545,859 -1545,1656 0,736 357,1846 1623,1846 234,0 580,-67 714,-167 11,-179 33,-363 33,-541 0,-190 -17,-324 -50,-447 -167,-34 -206,-39 -524,-67l-22 -23 0 -106 22 -22c212,5 418,27 630,27 190,0 379,-6 552,-27l22 22 0 129c-212,50 -212,100 -212,557 0,385 28,519 28,547l-33 90c-530,50 -742,223 -1322,223 -1054,0 -1985,-597 -1985,-1974 0,-1344 904,-1918 2153,-1918 374,0 742,78 1110,156l61 62c-17,128 -45,340 -45,490l0 173 -22 22 -128 0z"/>
  <path class="fil1" d="M29682 35953c0,-206 -6,-351 -17,-418 -11,-62 -95,-117 -112,-123 -78,-27 -223,-27 -306,-33l-22 -22 0 -105 22 -23c346,6 708,23 1076,23 435,0 870,-17 1305,-23l95 67 -45 641 -89 0 -22 -22c0,-84 -61,-302 -128,-379 -156,-45 -469,-73 -714,-73 -195,0 -424,6 -558,33 -17,162 -34,558 -34,742 0,223 12,441 17,658 56,11 290,22 514,22 273,0 686,-28 853,-78l22 23 0 301 -22 22c-73,-33 -229,-50 -731,-50 -262,0 -491,11 -574,22l-62 61c-5,134 -17,274 -17,408 0,262 17,842 34,1137 129,17 424,33 680,33 235,0 547,-17 737,-84 84,-167 106,-218 162,-424l134 0c-12,133 -45,413 -45,674l-67 67c-429,-17 -864,-22 -1294,-22 -418,0 -764,6 -1026,22l-22 -22 0 -106 22 -23c234,-39 234,-67 234,-574l0 -2354z"/>
  <path class="fil1" d="M33535 35953c0,-206 -5,-351 -17,-418 -11,-62 -95,-117 -111,-123 -78,-27 -256,-27 -329,-33l-22 -22 0 -105 22 -23c73,0 346,23 909,23 296,0 653,-23 870,-23 496,0 937,274 937,831 0,675 -558,887 -708,931l-273 84 -22 34c178,256 1171,1556 1333,1729l217 44 22 23 0 106 -22 22c-45,0 -206,-22 -362,-22 -106,0 -290,6 -407,22 -240,-457 -1038,-1584 -1417,-1958l39 -89c563,0 1115,-128 1115,-809 0,-541 -318,-753 -820,-753 -212,0 -379,22 -463,56 -23,156 -39,368 -39,524l0 2304c0,206 6,351 17,418 12,62 95,117 112,123 78,28 256,28 329,33l22 23 0 106 -22 22c-73,0 -346,-22 -680,-22 -341,0 -614,22 -686,22l-22 -22 0 -106 22 -23c73,-6 251,-6 329,-33 17,-6 100,-61 111,-123 12,-67 17,-212 17,-418l0 -2354z"/>
  <path class="fil1" d="M37886 35769c0,-240 -50,-390 -317,-390l-168 0 -22 -22 0 -105 22 -23c95,6 284,23 485,23 167,0 329,-12 496,-23 128,390 959,1986 1439,2979 385,-792 1221,-2287 1439,-2979 173,11 346,23 519,23 134,0 273,-12 407,-23l22 23 0 105 -22 22c-485,0 -485,56 -485,993l0 1963c0,463 0,519 485,547l22 23 0 106 -22 22c-217,-6 -441,-22 -664,-22 -234,0 -469,17 -686,22l-22 -22 0 -106 22 -23c429,-50 429,-128 429,-1138l0 -1885 -11 0 -1238 2510c-89,184 -229,486 -284,675l-84 0c-78,-217 -128,-373 -279,-675l-1238 -2510 -11 0 0 2282c0,702 128,741 452,741l22 23 0 106 -22 22c-190,-6 -385,-22 -574,-22 -201,0 -396,17 -597,22l-22 -22 0 -106 22 -23c485,0 485,-111 485,-1383l0 -1729z"/>
  <path class="fil1" d="M44177 37364c212,6 418,17 630,17 201,0 407,-11 608,-17l-602 -1461 -636 1461zm2192 1121c145,357 173,374 469,396l22 23 0 106 -22 22c-145,-6 -446,-22 -647,-22 -206,0 -452,12 -669,22l-22 -22 0 -106 22 -23c201,-17 390,-22 390,-145 0,-56 -39,-134 -61,-190l-363 -953c-234,-12 -463,-17 -697,-17 -234,0 -469,5 -703,17l-134 323c-95,223 -273,669 -296,825 56,106 117,117 407,139l22 23 0 106 -22 22c-296,-17 -413,-22 -535,-22 -201,0 -402,17 -597,22l-22 -22 0 -106 22 -23c290,-22 324,-72 374,-161 145,-240 251,-435 351,-670l1009 -2359c112,-256 95,-251 184,-474l195 0c39,139 50,167 100,290l1221 2978z"/>
  <path class="fil1" d="M48265 35892c0,-357 -262,-513 -457,-513l-22 -22 0 -105 22 -23c123,11 285,23 446,23 123,0 240,-12 362,-23 413,692 1685,2209 2359,2984l0 -2041c0,-697 -78,-792 -463,-792l-22 -22 0 -105 22 -23c190,11 379,23 569,23 190,0 385,-12 586,-23l22 23 0 105 -22 22c-341,0 -458,11 -458,803l0 2309c0,173 16,396 33,541l-234 0c-162,-245 -1639,-2052 -2510,-3073l0 2181c0,702 128,741 452,741l22 23 0 106 -22 22c-190,-6 -385,-22 -574,-22 -201,0 -396,17 -569,22l-22 -22 0 -106 22 -23c457,0 457,-111 457,-1383l0 -1606z"/>
  <path class="fil1" d="M55771 36840c301,11 609,23 910,23 384,0 786,-12 1165,-23l0 -887c0,-206 -5,-351 -17,-418 -11,-62 -95,-117 -111,-123 -78,-27 -257,-27 -329,-33l-23 -22 0 -105 23 -23c229,6 452,23 681,23 228,0 457,-17 686,-23l22 23 0 105 -22 22c-72,6 -251,6 -329,33 -16,6 -100,61 -111,123 -11,67 -17,212 -17,418l0 2354c0,206 6,351 17,418 11,62 95,117 111,123 79,28 257,28 329,33l22 23 0 106 -22 22c-229,-6 -458,-22 -686,-22 -229,0 -452,17 -681,22l-23 -22 0 -106 23 -23c72,-6 251,-6 329,-33 16,-6 100,-61 111,-123 12,-67 17,-212 17,-418l0 -1233c-324,-11 -647,-17 -970,-17 -368,0 -737,6 -1105,17l0 1233c0,206 6,351 17,418 11,62 95,117 112,123 78,28 257,28 329,33l22 23 0 106 -22 22c-229,-6 -451,-22 -680,-22 -229,0 -458,17 -686,22l-23 -22 0 -106 23 -23c72,-6 251,-6 329,-33 16,-6 100,-61 111,-123 12,-67 17,-212 17,-418l0 -2354c0,-206 -6,-351 -17,-418 -11,-62 -95,-117 -111,-123 -78,-27 -257,-27 -329,-33l-23 -22 0 -105 23 -23c229,6 458,23 686,23 229,0 451,-17 680,-23l22 23 0 105 -22 22c-72,6 -251,6 -329,33 -16,6 -100,61 -112,123 -11,67 -17,212 -17,418l0 887z"/>
  <path class="fil1" d="M60730 37364c212,6 418,17 630,17 201,0 407,-11 608,-17l-602 -1461 -635 1461zm2192 1121c145,357 173,374 468,396l23 23 0 106 -23 22c-145,-6 -446,-22 -646,-22 -207,0 -452,12 -669,22l-23 -22 0 -106 23 -23c201,-17 390,-22 390,-145 0,-56 -39,-134 -61,-190l-362 -953c-235,-12 -463,-17 -697,-17 -235,0 -469,5 -704,17l-134 323c-95,223 -273,669 -296,825 56,106 117,117 408,139l22 23 0 106 -22 22c-296,-17 -413,-22 -535,-22 -201,0 -402,17 -597,22l-23 -22 0 -106 23 -23c289,-22 323,-72 373,-161 145,-240 251,-435 351,-670l1010 -2359c111,-256 95,-251 184,-474l195 0c39,139 51,167 100,290l1222 2978z"/>
  <path class="fil1" d="M64706 35892c0,-357 -262,-513 -457,-513l-23 -22 0 -105 23 -23c123,11 284,23 446,23 123,0 240,-12 363,-23 413,692 1684,2209 2359,2984l0 -2041c0,-697 -78,-792 -463,-792l-22 -22 0 -105 22 -23c190,11 380,23 569,23 189,0 384,-12 585,-23l23 23 0 105 -23 22c-340,0 -457,11 -457,803l0 2309c0,173 17,396 34,541l-234 0c-161,-245 -1639,-2052 -2509,-3073l0 2181c0,702 128,741 451,741l22 23 0 106 -22 22c-189,-6 -384,-22 -574,-22 -201,0 -396,17 -568,22l-23 -22 0 -106 23 -23c457,0 457,-111 457,-1383l0 -1606z"/>
  <path class="fil1" d="M72335 37102c0,-1054 -484,-1656 -1533,-1656 -374,0 -486,23 -680,50 0,362 -33,714 -33,1071 0,719 22,1445 33,2164 178,45 469,106 669,106 981,0 1544,-653 1544,-1735zm-2699 -1149c0,-206 -6,-351 -17,-418 -11,-62 -94,-117 -111,-123 -78,-27 -223,-27 -307,-33l-22 -22 0 -105 22 -23c212,6 508,23 826,23 435,0 808,-23 1093,-23 1104,0 1717,619 1717,1712 0,1149 -825,2091 -2002,2091 -324,0 -507,-22 -808,-22 -285,0 -497,12 -625,22l-22 -22 0 -106 22 -23c234,-39 234,-67 234,-574l0 -2354z"/>
  <path class="fil1" d="M76881 36082c-23,-346 -23,-363 -196,-480 -284,-195 -664,-223 -825,-223 -1099,0 -1400,881 -1400,1612 0,842 435,1891 1551,1891 257,0 837,-156 1009,-362l67 61 -128 284c-301,134 -719,212 -1048,212 -1746,0 -1975,-1445 -1975,-1930 0,-1260 725,-1963 1991,-1963 463,0 926,94 1193,206 -39,190 -72,480 -88,692l-151 0z"/>
  <path class="fil1" d="M78755 35953c0,-206 -6,-351 -17,-418 -11,-62 -95,-117 -111,-123 -78,-27 -257,-27 -329,-33l-22 -22 0 -105 22 -23c72,0 345,23 909,23 296,0 653,-23 870,-23 496,0 937,274 937,831 0,675 -558,887 -709,931l-273 84 -22 34c178,256 1171,1556 1333,1729l217 44 22 23 0 106 -22 22c-45,0 -206,-22 -362,-22 -106,0 -290,6 -407,22 -240,-457 -1037,-1584 -1417,-1958l40 -89c563,0 1115,-128 1115,-809 0,-541 -317,-753 -820,-753 -212,0 -379,22 -462,56 -23,156 -39,368 -39,524l0 2304c0,206 6,351 17,418 11,62 95,117 112,123 78,28 257,28 329,33l23 23 0 106 -23 22c-72,0 -345,-22 -680,-22 -341,0 -614,22 -686,22l-22 -22 0 -106 22 -23c72,-6 251,-6 329,-33 16,-6 100,-61 111,-123 12,-67 17,-212 17,-418l0 -2354z"/>
  <path class="fil1" d="M83350 37364c212,6 419,17 630,17 201,0 407,-11 608,-17l-602 -1461 -636 1461zm2192 1121c145,357 172,374 469,396l22 23 0 106 -22 22c-145,-6 -446,-22 -647,-22 -207,0 -452,12 -669,22l-23 -22 0 -106 23 -23c201,-17 390,-22 390,-145 0,-56 -39,-134 -61,-190l-362 -953c-235,-12 -463,-17 -697,-17 -235,0 -469,5 -704,17l-134 323c-95,223 -273,669 -296,825 56,106 118,117 408,139l21 23 0 106 -21 22c-296,-17 -414,-22 -535,-22 -201,0 -402,17 -597,22l-23 -22 0 -106 23 -23c289,-22 323,-72 373,-161 145,-240 251,-435 351,-670l1010 -2359c112,-256 95,-251 184,-474l195 0c39,139 51,167 100,290l1222 2978z"/>
  <path class="fil1" d="M87333 35953c0,-206 -6,-351 -17,-418 -11,-62 -94,-117 -111,-123 -78,-27 -223,-27 -296,-33l-22 -22 0 -105 22 -23c139,6 447,23 1093,23 435,0 870,-17 1171,-23l95 67 -44 697 -90 0 -22 -22c0,-112 -61,-357 -128,-435 -167,-56 -447,-73 -630,-73 -112,0 -362,0 -535,50 -17,217 -33,670 -33,931 0,240 5,608 16,703 128,50 268,50 491,50 212,0 625,-28 792,-78l22 22 0 302 -22 22c-73,-33 -229,-50 -669,-50 -324,0 -503,6 -614,17 -11,296 -16,592 -16,876 0,206 5,351 16,418 11,62 95,117 111,123 78,28 357,28 429,33l23 23 0 106 -23 22c-72,0 -446,-22 -780,-22 -340,0 -580,22 -653,22l-22 -22 0 -106 22 -23c72,-6 218,-6 296,-33 17,-6 100,-61 111,-123 12,-67 17,-212 17,-418l0 -2354z"/>
  <path class="fil1" d="M93194 35958l-22 -22c-12,-117 -22,-318 -112,-413 -145,-28 -284,-55 -641,-55 -111,0 -223,5 -368,17 -23,150 -34,312 -34,468l0 2354c0,206 5,351 16,418 12,62 95,117 112,123 78,28 256,28 329,33l22 23 0 106 -22 22c-229,-6 -452,-22 -681,-22 -229,0 -457,17 -686,22l-22 -22 0 -106 22 -23c73,-6 251,-6 329,-33 17,-6 100,-61 112,-123 11,-67 16,-212 16,-418l0 -2354c0,-156 -11,-318 -33,-468 -145,-12 -256,-17 -368,-17 -357,0 -496,27 -641,55 -90,95 -100,296 -112,413l-22 22 -167 0c28,-173 34,-301 34,-413 0,-117 -23,-206 -34,-295l67 -67c229,55 759,67 1505,67 741,0 1272,-12 1500,-67l67 67c-11,89 -34,178 -34,295 0,111 5,240 34,413l-167 0z"/>
  <path class="fil1" d="M30161 45577l22 22 33 351c6,39 223,374 804,374 530,0 875,-313 875,-881 0,-1071 -2036,-424 -2036,-1751 0,-731 697,-1065 1405,-1065 268,0 586,34 848,179 -39,206 -89,468 -89,686l-129 0 -22 -22c-12,-167 -17,-212 -51,-396 -172,-122 -346,-251 -759,-251 -513,0 -753,318 -753,692 0,1199 2036,469 2036,1723 0,881 -703,1283 -1517,1283 -100,0 -574,0 -870,-217 56,-184 61,-379 89,-725l112 0z"/>
  <path class="fil1" d="M34478 45750c0,206 5,351 17,418 11,61 94,117 111,123 78,28 257,28 329,33l22 22 0 106 -22 22c-229,-5 -452,-22 -680,-22 -229,0 -457,17 -686,22l-22 -22 0 -106 22 -22c72,-6 251,-6 329,-33 17,-6 100,-61 111,-123 11,-67 17,-212 17,-418l0 -2354c0,-207 -6,-351 -17,-418 -11,-61 -94,-117 -111,-123 -78,-28 -257,-28 -329,-33l-22 -22 0 -106 22 -22c229,6 457,22 686,22 229,0 452,-17 680,-22l22 22 0 106 -22 22c-72,6 -251,6 -329,33 -17,6 -100,61 -111,123 -12,67 -17,212 -17,418l0 2354z"/>
  <path class="fil1" d="M36547 43335c0,-357 -262,-513 -457,-513l-22 -22 0 -106 22 -22c123,11 284,22 446,22 123,0 240,-11 362,-22 413,692 1684,2209 2359,2984l0 -2041c0,-697 -78,-792 -463,-792l-22 -22 0 -106 22 -22c190,11 379,22 569,22 190,0 385,-11 586,-22l22 22 0 106 -22 22c-340,0 -457,11 -457,803l0 2309c0,173 17,396 33,541l-234 0c-162,-245 -1639,-2052 -2510,-3073l0 2181c0,703 128,742 452,742l22 22 0 106 -22 22c-190,-5 -385,-22 -574,-22 -201,0 -396,17 -569,22l-22 -22 0 -106 22 -22c457,0 457,-112 457,-1383l0 -1606z"/>
  <path class="fil1" d="M43803 43524c-23,-346 -23,-362 -195,-480 -284,-195 -664,-223 -826,-223 -1098,0 -1399,881 -1399,1611 0,843 435,1891 1550,1891 257,0 837,-156 1010,-363l67 62 -128 284c-301,133 -719,212 -1048,212 -1745,0 -1974,-1445 -1974,-1930 0,-1260 725,-1963 1991,-1963 463,0 926,95 1193,206 -39,189 -72,480 -89,692l-151 0z"/>
  <path class="fil1" d="M45593 43396c0,-207 -6,-351 -17,-418 -11,-61 -95,-117 -112,-123 -78,-28 -223,-28 -307,-33l-22 -22 0 -106 22 -22c346,6 708,22 1076,22 435,0 870,-17 1305,-22l95 67 -45 641 -89 0 -22 -22c0,-84 -61,-302 -128,-379 -156,-45 -469,-72 -714,-72 -195,0 -424,6 -558,33 -17,162 -33,558 -33,742 0,223 11,441 17,658 56,11 290,22 513,22 273,0 686,-28 853,-78l22 22 0 301 -22 22c-72,-33 -229,-50 -731,-50 -262,0 -491,11 -574,22l-61 62c-6,134 -17,273 -17,407 0,262 17,842 33,1138 128,17 424,33 680,33 234,0 547,-17 736,-84 84,-167 106,-218 162,-424l134 0c-11,134 -45,413 -45,674l-67 67c-429,-17 -865,-22 -1294,-22 -418,0 -764,5 -1026,22l-22 -22 0 -106 22 -22c234,-39 234,-67 234,-574l0 -2354z"/>
  <path class="fil1" d="M52442 45827c0,463 179,497 731,497l23 22 0 106 -23 22c-307,-5 -613,-22 -920,-22 -318,0 -636,17 -954,22l-23 -22 0 -106 23 -22c697,-39 708,-72 708,-586l0 -2650 -931 318 -44 -235 22 -22c530,-72 920,-206 1389,-457l56 22c-39,251 -56,519 -56,786l0 2325z"/>
  <path class="fil1" d="M55426 42844c-440,0 -674,374 -674,875 0,508 289,893 680,893 474,0 731,-362 741,-496 6,-84 17,-190 17,-251 0,-642 -290,-1021 -764,-1021zm-831 3580l0 -55c1127,-56 1534,-1105 1562,-1902l-22 0 -156 129c-285,240 -408,301 -664,301 -776,0 -966,-641 -966,-1015 0,-931 725,-1210 1121,-1210 1155,0 1155,1149 1155,1517 0,1383 -949,2331 -1940,2331l-90 -95z"/>
  <path class="fil1" d="M59246 45827c0,463 178,497 731,497l22 22 0 106 -22 22c-307,-5 -614,-22 -921,-22 -317,0 -635,17 -954,22l-22 -22 0 -106 22 -22c697,-39 709,-72 709,-586l0 -2650 -931 318 -45 -235 23 -22c530,-72 920,-206 1389,-457l55 22c-39,251 -55,519 -55,786l0 2325z"/>
  <path class="fil1" d="M62230 42844c-440,0 -674,374 -674,875 0,508 289,893 680,893 474,0 731,-362 741,-496 6,-84 17,-190 17,-251 0,-642 -290,-1021 -764,-1021zm-831 3580l0 -55c1127,-56 1534,-1105 1562,-1902l-22 0 -156 129c-285,240 -408,301 -664,301 -776,0 -966,-641 -966,-1015 0,-931 725,-1210 1121,-1210 1155,0 1155,1149 1155,1517 0,1383 -949,2331 -1940,2331l-90 -95z"/>
  <path class="fil0" d="M21515 22233c0,-3095 -1423,-4861 -4501,-4861 -1095,0 -1421,66 -1995,147 0,1065 -98,2095 -98,3142 0,2111 65,4239 98,6350 524,129 1375,309 1964,309 2881,0 4532,-1914 4532,-5087zm-7920 -3373c0,-604 -17,-1029 -48,-1226 -34,-180 -278,-344 -329,-359 -227,-82 -654,-82 -900,-100l-65 -64 0 -312 65 -66c623,18 1490,66 2423,66 1276,0 2372,-66 3207,-66 3240,0 5040,1819 5040,5025 0,3370 -2421,6136 -5875,6136 -949,0 -1489,-65 -2372,-65 -836,0 -1456,32 -1833,65l-66 -65 0 -312 66 -66c687,-112 687,-196 687,-1685l0 -6906z"/>
  <path class="fil0" d="M30272 17514c420,0 758,339 758,759 0,421 -338,760 -758,760 -419,0 -760,-339 -760,-760 0,-419 341,-759 760,-759zm-3132 0c420,0 759,339 759,759 0,421 -339,760 -759,760 -420,0 -758,-339 -758,-760 0,-419 338,-759 758,-759zm1550 3213c-1970,0 -2777,1178 -2777,3196 0,2406 1098,3664 2777,3664 1985,0 2793,-1582 2793,-3309 0,-1937 -760,-3551 -2793,-3551zm0 -437c2712,0 4099,1388 4099,3697 0,2406 -1742,4036 -4099,4036 -2487,0 -4084,-1452 -4084,-3857 0,-2519 1630,-3875 4084,-3875z"/>
  <path class="fil0" d="M36856 21889c0,-259 -15,-614 -32,-841 -194,0 -356,-15 -517,-15 -436,0 -1242,64 -1355,129 -98,65 -210,565 -259,935l-65 65 -259 0 -63 -65c0,-96 16,-257 16,-420 0,-419 -32,-967 -112,-1129l112 -130c339,33 1840,64 3116,64 1275,0 2777,-31 3116,-64l112 130c-81,162 -112,710 -112,1129 0,162 15,324 15,420l-65 65 -257 0 -65 -65c-48,-370 -161,-870 -257,-935 -112,-65 -921,-129 -1356,-129 -162,0 -323,15 -517,15 -16,227 -33,582 -33,841l0 3648c0,1129 65,1582 130,1663 63,81 145,145 226,192 65,50 580,130 888,130l67 64 0 243 -67 64c-566,-16 -1194,-64 -1823,-64 -630,0 -1259,48 -1825,64l-65 -64 0 -243 65 -64c307,0 824,-80 889,-130 80,-47 161,-111 226,-192 65,-81 129,-534 129,-1663l0 -3648z"/>
  <path class="fil0" d="M44842 21889c0,-259 -18,-614 -33,-841 -194,0 -355,-15 -517,-15 -436,0 -1244,64 -1356,129 -97,65 -211,565 -259,935l-65 65 -258 0 -65 -65c0,-96 16,-257 16,-420 0,-419 -32,-967 -114,-1129l114 -130c339,33 1840,64 3114,64 1276,0 2777,-31 3118,-64l112 130c-81,162 -112,710 -112,1129 0,162 15,324 15,420l-64 65 -258 0 -65 -65c-48,-370 -161,-870 -257,-935 -114,-65 -921,-129 -1357,-129 -162,0 -323,15 -517,15 -15,227 -33,582 -33,841l0 3648c0,1129 65,1582 131,1663 63,81 145,145 224,192 66,50 582,130 889,130l65 64 0 243 -65 64c-565,-16 -1194,-64 -1826,-64 -627,0 -1256,48 -1823,64l-64 -64 0 -243 64 -64c308,0 823,-80 889,-130 80,-47 161,-111 226,-192 64,-81 130,-534 130,-1663l0 -3648z"/>
  <path class="fil0" d="M51556 22632c0,-710 -17,-1324 -48,-1405 -50,-97 -146,-242 -242,-291 -81,-48 -614,-145 -890,-145l-65 -64 0 -244 65 -64c502,17 1131,64 1761,64 629,0 1259,-47 1920,-64l64 64 0 244 -64 64c-97,0 -808,82 -921,129 -81,32 -259,128 -306,242 -65,129 -115,807 -115,1630l0 2841c0,534 18,1292 50,1597 323,50 871,96 1533,96 500,0 904,-64 1082,-96 257,-419 435,-888 533,-1193l64 -50 258 0 49 63c-65,341 -194,1358 -210,1729l-112 113c-825,-49 -2131,-64 -2826,-64 -999,0 -1663,15 -2324,64l-65 -64 0 -243 65 -64c209,-33 533,-145 614,-241 64,-81 129,-1018 129,-2583l0 -2066z"/>
  <path class="fil0" d="M59126 22438c0,-695 -46,-1308 -225,-1453 -81,-65 -581,-194 -1017,-194l-64 -64 0 -244 64 -64c565,17 1196,64 1825,64 628,0 1258,-47 1823,-64l64 64 0 244 -64 64c-434,0 -936,129 -1015,194 -180,145 -228,758 -228,1453l0 3100c0,1129 65,1582 129,1663 66,81 148,145 228,192 64,50 581,130 886,130l64 64 0 243 -64 64c-565,-16 -1195,-64 -1823,-64 -629,0 -1260,48 -1825,64l-64 -64 0 -243 64 -64c307,0 823,-80 889,-130 81,-47 161,-111 226,-192 64,-81 128,-534 128,-1663l0 -3100z"/>
  <path class="fil0" d="M64612 21955c0,-727 -193,-906 -355,-1003 -129,-79 -599,-161 -775,-161l-65 -64 0 -244 65 -64c388,33 808,64 1242,64 307,0 614,-31 921,-64 727,969 3212,3746 4811,5570l0 -3212c0,-1131 -66,-1583 -131,-1663 -64,-81 -145,-145 -226,-194 -64,-47 -580,-129 -774,-129l-65 -64 0 -244 65 -64c388,33 871,64 1371,64 582,0 1066,-31 1454,-64l64 64 0 244 -64 64c-195,0 -712,82 -776,129 -80,49 -161,113 -226,194 -64,80 -130,532 -130,1663l0 4068c0,370 18,871 49,1048l-612 0c-922,-1177 -3455,-4036 -5279,-6053l0 3697c0,1129 64,1582 129,1663 64,81 145,145 225,192 66,50 583,130 776,130l64 64 0 243 -64 64c-387,-32 -872,-64 -1373,-64 -582,0 -1064,32 -1451,64l-65 -64 0 -243 65 -64c193,0 710,-80 775,-130 80,-47 162,-111 225,-192 64,-81 130,-534 130,-1663l0 -3583z"/>
  <path class="fil0" d="M77843 25004l65 -64c403,47 1098,64 1517,64 532,0 855,-16 1260,-64l64 64 0 241 -64 65c-147,16 -372,49 -485,98 -48,145 -97,500 -97,953 0,564 49,1015 145,1095l-48 130c-581,147 -1987,436 -2857,436 -2342,0 -4149,-1195 -4149,-3857 0,-2389 1888,-3875 4341,-3875 1082,0 1986,227 2712,421l49 80c-113,339 -227,1098 -227,1598l-63 65 -227 0 -64 -65c-17,-306 -49,-629 -97,-872 -420,-420 -1275,-726 -2131,-726 -1291,0 -2985,904 -2985,3277 0,1678 904,3518 3228,3518 500,0 903,-112 1258,-226 18,-338 49,-823 49,-1097 0,-290 -32,-581 -49,-855 -355,-49 -725,-98 -1080,-98l-65 -65 0 -241z"/>
 </g>
</svg>
